<?xml version="1.0" encoding="UTF-8"?>
<svg id="Layer_1" xmlns="http://www.w3.org/2000/svg" version="1.1" viewBox="0 0 500 500">
  <!-- Generator: Adobe Illustrator 29.2.1, SVG Export Plug-In . SVG Version: 2.1.0 Build 116)  -->
  <defs>
    <style>
      .st0 {
        fill: #0658a3;
      }

      .st1 {
        fill: none;
      }

      .st2 {
        fill: #e92930;
      }

      .st3 {
        fill: #99999a;
      }
    </style>
  </defs>
  <path class="st2" d="M346.32,169.65c-.11,8.14-.8,15.97-3.43,23.64-.99,2.89-2.15,5.7-3.59,8.38l-2.56,5.39-3.19-6.69h0c-5.03-8.72-10.38-17.23-16.6-25.18-9.19-11.74-19.51-22.3-31.43-31.37-20.79-15.83-44.23-25.33-69.8-29.61-16.77-2.81-33.7-2.67-50.59-.7l-17.15,2.35c22.11-5.51,22.48-5.67,22.48-5.68,19.91-4.35,40.03-7.35,60.47-7.29,25.07.07,49.53,3.75,72.67,13.87,11.26,4.94,22.6,10.1,30.81,19.72,8.1,9.47,12.11,20.39,11.92,33.18Z"/>
  <path class="st0" d="M238.78,212.36h0s-2.02.96-2.02.96l-.86.42s-.06.02-.09.04c-7.22,3.12-18.86,6.73-20.1,7.11-.07.02-.1.03-.1.03-11.56,2.99-23.35,4.58-35.37,4.96l-5.49.35v-2.88c0-.14,0-.29,0-.45.08-18.32.09-36.63,0-54.95v-3.57h40.93v2.96c-.05,10.84,0,21.68-.05,32.53,0,1.27,0,2.53,0,3.81,0,1.72-.02,3.45-.04,5.18,0,.36,0,.68.04.97v2.53h23.18Z"/>
  <path class="st3" d="M287.79,154.73c-.71-.52-1.83-1.23-3.18-1.77-.02,0-.05-.02-.08-.03-.34-.13-.7-.26-1.08-.36-4.28-1.46-8.38-3.07-12.83-3.55-2.59-.26-5.16-.48-7.77-.49-26.97,0-53.94,0-80.9,0h-6.73c3.05-4.2,5.65-7.9,8.38-11.5,4.55-6.01,9.21-11.93,13.77-17.94l.13-.17.9-1.15.06-.08,1.6-2.06,2.73.44h.08c24.52,3.61,47.49,11.31,67.96,25.68,4.52,3.17,9.04,6.31,13.21,9.94l3.75,3.05Z"/>
  <path class="st3" d="M198.41,117.76l-.9,1.15c.19-.24.37-.48.55-.72.11-.15.23-.3.35-.44Z"/>
  <path class="st3" d="M331.66,214.24l-1.85,2.36h0c-.14.2-.3.41-.47.61-13.28,15.48-29.85,24.92-50.74,27.59,26.19-13.72,33.7-36.38,32-64.62,7.45,10.41,13.51,20.39,19.01,30.7l2.07,3.36Z"/>
  <path class="st0" d="M112.28,219.34c7.69,3.77,15.3,7.74,23.1,11.26,13.83,6.24,28.24,10.81,43.03,14.2,29.53,6.77,59.02,7.52,88.41-.83,9.23-2.62,17.97-6.43,24.48-13.65,12.28-13.63,16.5-29.96,14.69-48-.43-4.24-.98-8.51-2.96-12.67-7.71,7.82-14.95,15.53-23.22,22.27-11.35,9.25-23.24,17.54-36.55,23.74-14.14,6.59-29,10.57-44.34,13.26-13.32,2.33-26.64,2.54-39.9.71-15.17-2.09-30.17-5.26-44.56-10.75l-13.76-6.22,11.58,6.69Z"/>
  <path class="st0" d="M142.31,284.69c-6.62-3.84-13.61-5.58-20.91-5.97h-35.75v4.07c.05,9.63.03,19.24.03,28.86,0,10.29.03,20.56-.03,30.85v3.06h9.26c9.19,0,18.41.1,27.6-.13,8.07-.22,15.42-2.81,22.08-7.67,16.97-12.4,15.49-42.78-2.27-53.07ZM122.21,327.53c-3.97.78-8.02.34-12.02.44-2.09.07-1.84-1.36-1.84-2.64-.02-4.37,0-8.75,0-13.12,0-4.48,0-8.98,0-13.46,0-1.19-.12-2.5,1.71-2.41,4.35.21,8.74-.45,13.04.72,6.91,1.86,10.79,7.39,10.63,15.2-.18,8.34-4.3,13.87-11.52,15.27Z"/>
  <path class="st0" d="M338.53,293.35c.04.66,0,1.19-.13,1.6v-4.72c.02,1.04.07,2.08.13,3.12Z"/>
  <path class="st0" d="M281.8,328.26v17.33h-12.66s0-.02,0-.05c-11.58-.04-23.15-.04-34.73.03v.03h-5.34v-1.83c-.04-.4-.03-.83-.03-1.3.03-10.17.02-20.33.02-30.5,0-10.04.07-20.1-.06-30.14,0-.26,0-.5.02-.72v-2.48h22.61v2.36c.03.27.04.6.04.96-.04,7.42-.05,14.84-.05,22.25v24.04h30.17Z"/>
  <path class="st0" d="M232.79,278.64h-1.72c.32-.05.69-.05,1.11-.03.21,0,.41.02.61.03Z"/>
  <path class="st0" d="M215.15,318.09v-1.43c0,.22,0,.43.02.64,0,.29,0,.55-.02.79Z"/>
  <path class="st0" d="M168.89,278.6h-1.64c.14,0,.29,0,.44,0,.4,0,.79,0,1.19,0Z"/>
  <g>
    <path class="st2" d="M160.25,360.27v4.21h2.61v5.47c0,1.71.9,2.56,2.69,2.56h4.69v8.64c0,.96-.58,1.43-1.73,1.43-1.02,0-1.52-.44-1.52-1.31v-4.43h-4.99v4.26c0,4.26,2.16,6.41,6.47,6.47,2.29,0,4.04-.47,5.25-1.41,1.22-.95,1.83-2.91,1.83-5.93v-1.31h1.61c1.19,0,1.83.6,1.91,1.79v10.24h5.3v-26.48h17.37v2.38h-8.2c-1.94,0-3.23.46-3.87,1.37-.63.91-.96,2.22-.96,3.93v9.38c0,.9.22,1.77.65,2.6.44.84,1.07,1.47,1.91,1.87l10.46,4.95h5.26v-26.48h4.34v26.48h5.3v-26.48h17.37v2.38h-8.21c-1.94,0-3.23.46-3.86,1.37-.64.91-.96,2.22-.96,3.93v9.38c0,.9.22,1.77.65,2.6.44.84,1.07,1.47,1.91,1.87l10.46,4.95h5.25v-26.48h2.61v-4.21h-81.59ZM179.05,374.68c-.41-.7-1.17-1.04-2.3-1.04h-1.22v-3.22c-.03-1.74-1.07-2.62-3.12-2.65h-3.13c-.75-.03-1.13-.43-1.13-1.17v-2.13h10.9v10.21ZM201.71,385.4l-6.69-3.25c-.69-.31-1.04-1.01-1.04-2.08v-6.55c0-.44.11-.82.35-1.15.23-.33.74-.5,1.51-.5h5.86v13.54ZM233.97,385.4l-6.69-3.25c-.69-.31-1.04-1.01-1.04-2.08v-6.55c0-.44.11-.82.35-1.15.23-.33.74-.5,1.51-.5h5.86v13.54Z"/>
    <polygon class="st2" points="231.49 391.56 231.49 397.12 225.98 394.65 225.98 388.96 231.49 391.56"/>
    <g>
      <path class="st0" d="M263.41,386.88h-2.35l8.77,3.52v5.33l-16.54-7.21v-6.47h8.78c.83,0,1.45-.16,1.84-.5.39-.33.59-.97.59-1.93v-6.94c0-.38-.18-.76-.52-1.13-.35-.37-.81-.56-1.39-.56h-2.31c-.52,0-.94.15-1.26.47-.31.32-.47.73-.47,1.22v.99c0,1.13.62,1.69,1.86,1.69h1.39l-.05,4.91h-2.82c-3.74,0-5.62-2.18-5.65-6.55v-1.52c0-2.11.51-3.67,1.52-4.66,1.01-1,2.37-1.51,4.09-1.54h3.64c2.52,0,4.36.58,5.53,1.73,1.17,1.16,1.76,2.83,1.76,4.99v7.29c0,2.35-.52,4.07-1.56,5.17-1.07,1.13-2.69,1.69-4.86,1.69Z"/>
      <path class="st0" d="M398.42,360.36c-.12-.05-.25-.08-.38-.09"/>
      <path class="st0" d="M398.42,360.36c-.12-.05-.25-.08-.38-.09h-1.13v-1.96c0-5.35-2.87-8.06-8.59-8.12-3.13.03-6.65,1.03-10.56,3v4.9c4.11-2,7.69-2.99,10.73-2.99,2.05,0,3.08,1.01,3.08,3.04v2.13h-84.05v-1.96c0-5.35-2.87-8.06-8.6-8.12-3.13.03-6.64,1.03-10.56,3v4.9c4.11-2,7.69-2.99,10.73-2.99,2.06,0,3.08,1.01,3.08,3.04v2.13h-32.35v-1.96c0-5.06-2.71-7.62-8.16-7.68-2.84.03-5.63.6-8.38,1.69v4.91c2.96-1.14,5.81-1.69,8.56-1.69,1.76,0,2.65.86,2.65,2.6v2.13h-13.81v4.21h37.64v4.75c-1.27-1.16-2.7-1.75-4.26-1.75h-3.25c-2.03,0-3.64.52-4.84,1.56-1.2,1.04-1.81,2.72-1.81,5.04v1.69c0,2.43.74,4.16,2.19,5.2,1.47,1.05,3.29,1.57,5.5,1.57h2.82v-4.99h-2.78c-.93,0-1.56-.21-1.91-.63-.34-.42-.52-.86-.52-1.32v-1.04c0-.52.21-.95.61-1.28.4-.34.86-.5,1.39-.5h2.73c1.56,0,2.94.72,4.12,2.15v11.05c0,1.6.37,2.83,1.11,3.7.74.86,2.07,1.3,4.02,1.3h6.72c2.57-.03,4.45-.68,5.6-1.98,1.16-1.29,1.74-2.99,1.74-5.1v-10.34c0-1.53-.44-2.65-1.31-3.36-.87-.71-2.16-1.08-3.86-1.11h-4.52v4.99h3.13c.46,0,.79.09.99.26.21.17.3.51.3,1v8.5c0,.78-.17,1.33-.52,1.66-.34.32-.9.47-1.65.47h-4.86c-.58,0-.97-.09-1.17-.3-.21-.2-.3-.52-.3-.96v-20.23h17.75v26.48h5.3v-26.48h17.37v2.39h-8.2c-1.94,0-3.23.45-3.87,1.36-.63.92-.96,2.22-.96,3.93v9.37c0,.9.22,1.77.65,2.61.44.83,1.07,1.46,1.91,1.86l10.46,4.95h5.26v-26.48h5.12c-.23.26-.42.63-.56,1.13-.15.5-.22,1.32-.22,2.48v16.84c.14,4.95,2.71,7.42,7.68,7.42h.82v-4.86h-.78c-.63,0-1.21-.23-1.71-.7-.51-.45-.77-1.08-.77-1.86v-16.89c.03-1.87.62-3.06,1.78-3.56h17.28v7.56c-.93-.96-2.09-1.44-3.51-1.44h-4.52c-2.05.15-3.64.76-4.78,1.83-1.27,1.25-1.91,3.13-1.91,5.65v1.69c0,3.01.8,5.11,2.41,6.29,1.61,1.19,3.65,1.79,6.15,1.79h1.95v-4.99h-1.91c-1.04,0-1.85-.28-2.43-.85-.58-.56-.87-1.36-.87-2.4v-1.48c0-.55.24-1.05.7-1.51s1.04-.7,1.73-.7h4.04c1.22,0,2.2.62,2.95,1.87v13.19h5.3v-26.48h4.34v21.49c0,1.6.37,2.83,1.12,3.7.74.86,2.07,1.3,4.01,1.3h6.73c2.57-.03,4.44-.68,5.6-1.98,1.15-1.29,1.73-2.99,1.73-5.1v-10.34c0-1.53-.43-2.65-1.3-3.36-.87-.71-2.16-1.08-3.87-1.11h-4.51v4.99h3.12c.46,0,.79.09,1,.26.2.17.3.51.3,1v8.5c0,.78-.17,1.33-.52,1.66-.35.32-.9.47-1.66.47h-4.86c-.58,0-.96-.09-1.17-.3-.2-.2-.3-.52-.3-.96v-20.23h14.57c.3,0,.6-.07.85-.18.76-.32,1.28-1.07,1.28-1.94,0-.93-.6-1.71-1.43-2ZM334.17,385.41l-6.69-3.26c-.69-.31-1.04-1.01-1.04-2.08v-6.55c0-.44.11-.82.35-1.15.23-.33.74-.5,1.52-.5h5.85v13.55Z"/>
      <path class="st0" d="M326.19,388.96v5.68l5.51,2.48v-5.56l-5.51-2.6Z"/>
    </g>
    <g>
      <g>
        <path class="st0" d="M408.98,374.42c-.6-.66-1.2-1.31-1.8-1.97,2.78-2.69,4.34-5.98,4.47-9.87h0c.9,0,1.8.02,2.7.03-.2,1.97-.78,5.05-2.68,8.26-.87,1.47-1.82,2.65-2.69,3.55Z"/>
        <path class="st0" d="M405.52,371.04c-.31-.37-.64-.75-.99-1.14-.22-.24-.44-.48-.66-.71-.04-.04-.08-.09-.13-.13,1.85-1.79,2.9-4,2.99-6.63,0,0,.02,0,.02,0,.89.01,1.77.02,2.65.04,0,0,0,0,0,0-.09,1.08-.35,2.68-1.13,4.46-.85,1.95-1.98,3.3-2.76,4.12Z"/>
        <path class="st0" d="M402.04,367.53c-.33-.32-.67-.66-1-1.01-.27-.28-.53-.56-.78-.83,1.02-.99,1.49-2.21,1.53-3.41.84.03,1.67.05,2.5.08,0,0,0,0,.01,0-.07.86-.31,2.23-1.13,3.65-.36.63-.76,1.13-1.13,1.53Z"/>
      </g>
      <path class="st3" d="M404.28,362.41c-.83-.04-1.67-.08-2.5-.13.04-1.29-.43-2.55-1.3-3.48.27-.26.55-.52.84-.78.34-.3.68-.59,1-.85.41.4,1.06,1.15,1.5,2.26.49,1.23.5,2.33.45,2.93,0,.02,0,.03,0,.05Z"/>
      <path class="st3" d="M414.35,362.61c-.9-.01-1.8-.02-2.69-.04.13-3.9-1.2-7.28-3.82-10.17.27-.26.56-.52.85-.79.32-.29.64-.58.96-.85.97,1.03,2.33,2.74,3.35,5.16,1.16,2.75,1.36,5.2,1.37,6.69Z"/>
      <path class="st3" d="M409.4,362.49c-.88-.02-1.77-.04-2.65-.07,0,0-.02,0-.02,0h0c0-.12,0-.23,0-.34,0,0,0,0,0,0,0-1.47-.31-2.83-.92-4.07-.41-.86-.97-1.66-1.64-2.41.12-.12.25-.23.37-.34.16-.15.31-.29.47-.44.38-.35.75-.7,1.12-1.04.61.66,1.3,1.55,1.89,2.7,1.24,2.41,1.4,4.69,1.38,5.99,0,.01,0,.02,0,.03Z"/>
    </g>
    <line class="st1" x1="398.04" y1="360.27" x2="397.4" y2="360.27"/>
  </g>
  <path class="st3" d="M212.35,164.16"/>
  <path class="st3" d="M215.6,199.86c0,1.27,0,2.53,0,3.81v-3.82h0Z"/>
  <path class="st3" d="M215.6,220.92s.07-.02.1-.03c-.07.02-.1.03-.1.03Z"/>
  <polyline class="st1" points="94.91 345.56 87.25 345.56 85.65 345.56"/>
  <path class="st0" d="M164.64,283.49l-.03.03v-1.96c0,.64.02,1.29.03,1.93Z"/>
  <path class="st0" d="M220.58,328.57v16.98h-7.92c-15.24,0-30.47-.02-45.72.05-.17,0-.33,0-.48-.02h-1.81v-4.1c0-13.47,0-26.93,0-40.4,0-5.86.09-11.73,0-17.59,0-.64-.02-1.29-.03-1.93v-2.96h4.28c13.64.07,27.26.09,40.89.04h9.23v16.39h-32.23v8.69h28.37v2.59c-.12,3.44-.12,6.91,0,10.36v3.22h-28.37v8.69h33.8Z"/>
  <path class="st0" d="M215.15,306.31v10.36c-.12-3.44-.12-6.91,0-10.36Z"/>
  <polyline class="st1" points="219.94 278.64 219.01 278.64 210.14 278.64 209.78 278.64"/>
  <path class="st0" d="M338.4,285.42c-.05,1.61-.05,3.21,0,4.81v5.91h-19.92v49.46h-21.91v-49.6h-19.91v-17.37h3.99c8.98.08,17.96.03,26.93.03s18.22.13,27.32-.09h3.5v6.85Z"/>
  <path class="st0" d="M280.65,278.63h-1.53c.13,0,.28,0,.44,0,.37,0,.73,0,1.1,0Z"/>
  <path class="st0" d="M338.4,285.42v4.81c-.05-1.61-.05-3.21,0-4.81Z"/>
  <path class="st0" d="M386.24,333.92h-24.92l-4.4,11.67h-22.49l28.67-66.99h21.74l28.67,66.99h-22.86l-4.4-11.67ZM380.15,317.66l-6.37-16.84-6.37,16.84h12.74Z"/>
</svg>