<?xml version="1.0" encoding="UTF-8"?>
<svg version="1.1" xmlns="http://www.w3.org/2000/svg" width="500" height="500">
<path d="M0 0 C1.04160278 0.00337372 2.08320557 0.00674744 3.15637207 0.01022339 C61.12952008 0.2809035 116.77626259 18.21523219 162.375 54.4375 C163.20692871 55.09371338 163.20692871 55.09371338 164.05566406 55.76318359 C178.28282516 67.08358105 191.39382902 80.08036743 202.14404297 94.7578125 C203.37285707 96.4345759 204.62444508 98.09237153 205.87890625 99.75 C227.41080888 128.60770905 240.59342733 162.24678915 247.375 197.4375 C247.55289062 198.31325684 247.73078125 199.18901367 247.9140625 200.09130859 C253.34253749 227.82069126 252.99333924 260.77837521 247.375 288.4375 C247.18164062 289.44087402 246.98828125 290.44424805 246.7890625 291.47802734 C239.49175113 328.62336925 224.20658834 363.87987859 200.375 393.4375 C199.95879395 393.95521973 199.54258789 394.47293945 199.11376953 395.00634766 C180.90149548 417.46212841 159.69109009 435.00055498 135.375 450.4375 C134.26382812 451.14390625 133.15265625 451.8503125 132.0078125 452.578125 C75.25852584 486.71094778 1.64022228 494.19955398 -62.0625 479.1875 C-63.74182617 478.76368042 -63.74182617 478.76368042 -65.45507812 478.33129883 C-77.81104772 475.32920186 -85.47880355 477.83024831 -96.78134155 482.98406982 C-98.90556884 483.95142073 -101.03700462 484.90092527 -103.17114258 485.84619141 C-109.45064076 488.6330196 -115.70520373 491.46774697 -121.93359375 494.3671875 C-141.20803321 503.2178338 -141.20803321 503.2178338 -151.7890625 499.72265625 C-156.8184836 497.22934749 -160.47800375 493.02781888 -162.72875977 487.94482422 C-163.98494276 483.02890898 -164.03532055 478.25182371 -164.15234375 473.1953125 C-164.22308356 470.97264912 -164.29405426 468.74999307 -164.36523438 466.52734375 C-164.46612928 463.04290989 -164.56260693 459.55842527 -164.65405273 456.07373047 C-164.74597693 452.69712775 -164.8546063 449.32135984 -164.96484375 445.9453125 C-164.98683334 444.91173615 -165.00882294 443.87815979 -165.03147888 442.81326294 C-165.34847499 433.49075432 -166.865164 427.47405045 -173.78125 420.8984375 C-174.52964142 420.17337006 -174.52964142 420.17337006 -175.29315186 419.43365479 C-176.35048266 418.4100061 -177.41291705 417.39160557 -178.48010254 416.37823486 C-181.25351023 413.73830063 -183.97853981 411.04953736 -186.703125 408.359375 C-187.23234558 407.83763702 -187.76156616 407.31589905 -188.30682373 406.77835083 C-194.05613201 401.07555652 -199.03226593 395.08980546 -203.625 388.4375 C-204.10291992 387.75558594 -204.58083984 387.07367188 -205.07324219 386.37109375 C-225.92205104 356.46274556 -239.70224882 324.30888902 -246.625 288.4375 C-246.80289063 287.56706055 -246.98078125 286.69662109 -247.1640625 285.79980469 C-252.99645626 256.23280856 -252.01558835 221.80794373 -245.625 192.4375 C-245.30354004 190.91406982 -245.30354004 190.91406982 -244.97558594 189.35986328 C-237.35143043 154.06346358 -222.35285069 120.61696352 -199.625 92.4375 C-198.99271484 91.65294434 -198.99271484 91.65294434 -198.34765625 90.85253906 C-186.05910342 75.74118098 -172.36420397 61.9340014 -156.625 50.4375 C-155.47394983 49.57943848 -154.32290823 48.72136549 -153.171875 47.86328125 C-125.32230448 27.32069872 -93.54102246 13.75126265 -59.875 6.0625 C-58.88435547 5.83570557 -57.89371094 5.60891113 -56.87304688 5.37524414 C-38.02817274 1.36058486 -19.23143888 -0.12208779 0 0 Z " fill="#A44FD4" transform="translate(249.625,-0.4375)"/>
<path d="M0 0 C4.30619632 2.23590963 7.26400997 4.40473228 9 9 C8.9673201 17.31703339 5.83357211 22.37268559 1.3125 29.1875 C0.63985107 30.23123779 -0.03279785 31.27497559 -0.72583008 32.3503418 C-2.12176612 34.51488378 -3.52441301 36.67511196 -4.93359375 38.83105469 C-7.47226784 42.72424818 -9.96342457 46.64626035 -12.45092773 50.57226562 C-14.18217768 53.30410162 -15.92026837 56.03147142 -17.66015625 58.7578125 C-22.30851522 66.04761989 -26.92000322 73.36063971 -31.53222656 80.67333984 C-34.51870759 85.4073991 -37.50848118 90.13938044 -40.49829102 94.87133789 C-43.01344245 98.85253358 -45.52643265 102.83506273 -48.03515625 106.8203125 C-50.52247597 110.77040833 -53.01678977 114.71600158 -55.51660156 118.65820312 C-56.51793532 120.23897886 -57.51723723 121.82104323 -58.51464844 123.40429688 C-59.98252601 125.73199917 -61.45895617 128.05406232 -62.9375 130.375 C-63.59214233 131.41841553 -63.59214233 131.41841553 -64.26000977 132.48291016 C-69.59435618 140.80864213 -77.36893704 148.72855219 -87.12890625 151.51953125 C-97.8877556 153.31999175 -108.88114074 153.60738012 -118.20117188 147.28515625 C-125.04691147 142.39428041 -131.68832625 137.24558184 -138.3203125 132.07080078 C-142.35025342 128.95655526 -146.45089467 125.94264859 -150.5625 122.9375 C-155.55732858 119.2843688 -160.53097993 115.6088883 -165.45703125 111.86328125 C-166.36187256 111.17693604 -167.26671387 110.49059082 -168.19897461 109.78344727 C-169.9416612 108.45922168 -171.68094441 107.13050137 -173.41625977 105.79663086 C-174.20444092 105.19858643 -174.99262207 104.60054199 -175.8046875 103.984375 C-176.49546387 103.45553711 -177.18624023 102.92669922 -177.89794922 102.38183594 C-182.50320397 99.35445593 -186.51799246 98.20422471 -192 99 C-200.15047913 102.94074321 -207.08134385 109.16240737 -214.06640625 114.83984375 C-217.85148056 117.90368391 -221.71845377 120.84335237 -225.625 123.75 C-232.03300225 128.51993227 -238.40055287 133.33985473 -244.75 138.1875 C-259.24676289 149.24672577 -259.24676289 149.24672577 -264.375 153.02734375 C-266.22047929 154.41419947 -268.03057211 155.84879064 -269.8125 157.31640625 C-275.09900616 161.53826881 -278.90799439 164.13997668 -285.8359375 163.53515625 C-290.41979631 162.40160272 -292.47488396 159.78767407 -295 156 C-296.13443036 146.35734197 -289.50478496 138.42522416 -284.5 130.6875 C-283.24188115 128.72675904 -281.98407395 126.76581807 -280.7265625 124.8046875 C-280.09911133 123.82854492 -279.47166016 122.85240234 -278.82519531 121.84667969 C-276.1546279 117.68150901 -273.51303811 113.49832179 -270.875 109.3125 C-269.89325271 107.75649556 -268.91148194 106.20050594 -267.9296875 104.64453125 C-267.44725586 103.87963379 -266.96482422 103.11473633 -266.46777344 102.32666016 C-264.48141523 99.17795861 -262.49333286 96.03034757 -260.50512695 92.8828125 C-259.5009354 91.29304615 -258.49686657 89.70320227 -257.49291992 88.11328125 C-255.03217884 84.21634259 -252.57022602 80.32018115 -250.10546875 76.42578125 C-249.13271066 74.88808525 -248.16005511 73.35032438 -247.1875 71.8125 C-246.70313477 71.04671631 -246.21876953 70.28093262 -245.71972656 69.49194336 C-242.19846276 63.91698984 -238.70655231 58.32417227 -235.22143555 52.7265625 C-212.63791934 16.48106776 -212.63791934 16.48106776 -198.8125 12.47265625 C-195.0543249 11.84107405 -191.36936284 11.63834554 -187.5625 11.5625 C-186.87099854 11.54010254 -186.17949707 11.51770508 -185.46704102 11.49462891 C-175.5315447 11.53877118 -167.82967009 16.34891562 -160.1875 22.25 C-159.38054687 22.8584375 -158.57359375 23.466875 -157.7421875 24.09375 C-155.15245875 26.05096435 -152.57556635 28.02419672 -150 30 C-148.25695928 31.32871404 -146.51346822 32.65683752 -144.76953125 33.984375 C-142.13416152 35.99193827 -139.49949513 38.00038582 -136.8671875 40.01196289 C-130.83979566 44.61479008 -124.78340043 49.17576326 -118.6875 53.6875 C-117.92953125 54.25146484 -117.1715625 54.81542969 -116.390625 55.39648438 C-108.1210095 61.94906803 -108.1210095 61.94906803 -98.5 65.5625 C-91.23062042 64.39420685 -85.7063053 60.27721604 -80.1875 55.625 C-74.48171037 50.93740057 -68.65616331 46.47265769 -62.6875 42.125 C-55.45012313 36.84313627 -48.33839686 31.42475819 -41.2824707 25.90332031 C-36.25889828 21.97332601 -31.20703077 18.09556384 -26.07421875 14.30859375 C-23.66793169 12.5015853 -21.30863375 10.66128915 -18.95703125 8.78515625 C-18.2501416 8.23102051 -17.54325195 7.67688477 -16.81494141 7.10595703 C-15.43031606 6.02005738 -14.05562612 4.92132788 -12.69287109 3.80810547 C-8.38921525 0.46637928 -5.64267244 -0.77971474 0 0 Z " fill="#FEFEFE" transform="translate(393,168)"/>
</svg>
